# xmcd
#
# Track frame offsets: 
#        150
#        15894
#        31548
#        44883
#        62443
#        77299
#        88812
#        102271
#        115545
#        131760
#
# Disc length: 1958 seconds
#
# Revision: 0
# Processed by: cddbd v1.5.2PL0 Copyright (c) Steve Scherf et al.
# Submitted via: ExactAudioCopy v0.95b4
#
DISCID=6b07a40a
DTITLE=Captain Luke - One Of These Days
DYEAR=2008
DGENRE=Blues
TTITLE0=Short Haired Woman
TTITLE1=One Of These Days
TTITLE2=(You Keep Me) Hangin' On
TTITLE3=Come Back To Me
TTITLE4=Old Black Buck
TTITLE5=River
TTITLE6=Sweeter Than Honey
TTITLE7=Angeles Of Mercy
TTITLE8=Farther On Down The Road
TTITLE9=Serves Me Right
EXTD=
EXTT0=
EXTT1=
EXTT2=
EXTT3=
EXTT4=
EXTT5=
EXTT6=
EXTT7=
EXTT8=
EXTT9=
PLAYORDER=
